<mxfile host="app.diagrams.net" modified="2023-03-21T23:19:23.047Z" agent="5.0 (Macintosh; Intel Mac OS X 10_15_7) AppleWebKit/537.36 (KHTML, like Gecko) Chrome/111.0.0.0 Safari/537.36" etag="lVoZmJ20SHJqwTwILPer" version="21.0.10" type="github" pages="2">
  <diagram id="UXahiTQz0xHkTQGtcDH2" name="disenio sistemas - clase 1">
    <mxGraphModel dx="2402" dy="1122" grid="1" gridSize="10" guides="1" tooltips="1" connect="1" arrows="1" fold="1" page="1" pageScale="1" pageWidth="850" pageHeight="1100" math="0" shadow="0">
      <root>
        <mxCell id="0" />
        <mxCell id="1" parent="0" />
        <mxCell id="ZVrv0uG5uB8y7vt346ip-1" value="Documento" style="swimlane;fontStyle=1;align=center;verticalAlign=top;childLayout=stackLayout;horizontal=1;startSize=26;horizontalStack=0;resizeParent=1;resizeParentMax=0;resizeLast=0;collapsible=1;marginBottom=0;fontSize=13;fontColor=#330000;" parent="1" vertex="1">
          <mxGeometry x="410" y="670" width="160" height="216" as="geometry" />
        </mxCell>
        <mxCell id="ZVrv0uG5uB8y7vt346ip-5" value="- nombre: string" style="text;strokeColor=none;fillColor=none;align=left;verticalAlign=top;spacingLeft=4;spacingRight=4;overflow=hidden;rotatable=0;points=[[0,0.5],[1,0.5]];portConstraint=eastwest;fontSize=13;fontColor=#330000;" parent="ZVrv0uG5uB8y7vt346ip-1" vertex="1">
          <mxGeometry y="26" width="160" height="26" as="geometry" />
        </mxCell>
        <mxCell id="ZVrv0uG5uB8y7vt346ip-10" value="- autor: Autor" style="text;strokeColor=none;fillColor=none;align=left;verticalAlign=top;spacingLeft=4;spacingRight=4;overflow=hidden;rotatable=0;points=[[0,0.5],[1,0.5]];portConstraint=eastwest;fontSize=13;fontColor=#330000;" parent="ZVrv0uG5uB8y7vt346ip-1" vertex="1">
          <mxGeometry y="52" width="160" height="26" as="geometry" />
        </mxCell>
        <mxCell id="ZVrv0uG5uB8y7vt346ip-9" value="- titulo: string" style="text;strokeColor=none;fillColor=none;align=left;verticalAlign=top;spacingLeft=4;spacingRight=4;overflow=hidden;rotatable=0;points=[[0,0.5],[1,0.5]];portConstraint=eastwest;fontSize=13;fontColor=#330000;" parent="ZVrv0uG5uB8y7vt346ip-1" vertex="1">
          <mxGeometry y="78" width="160" height="26" as="geometry" />
        </mxCell>
        <mxCell id="ZVrv0uG5uB8y7vt346ip-6" value="- texto: string" style="text;strokeColor=none;fillColor=none;align=left;verticalAlign=top;spacingLeft=4;spacingRight=4;overflow=hidden;rotatable=0;points=[[0,0.5],[1,0.5]];portConstraint=eastwest;fontSize=13;fontColor=#330000;" parent="ZVrv0uG5uB8y7vt346ip-1" vertex="1">
          <mxGeometry y="104" width="160" height="26" as="geometry" />
        </mxCell>
        <mxCell id="ZVrv0uG5uB8y7vt346ip-19" value="- fecha: Date" style="text;strokeColor=none;fillColor=none;align=left;verticalAlign=top;spacingLeft=4;spacingRight=4;overflow=hidden;rotatable=0;points=[[0,0.5],[1,0.5]];portConstraint=eastwest;fontSize=13;fontColor=#330000;" parent="ZVrv0uG5uB8y7vt346ip-1" vertex="1">
          <mxGeometry y="130" width="160" height="26" as="geometry" />
        </mxCell>
        <mxCell id="ZVrv0uG5uB8y7vt346ip-2" value="" style="line;strokeWidth=1;fillColor=none;align=left;verticalAlign=middle;spacingTop=-1;spacingLeft=3;spacingRight=3;rotatable=0;labelPosition=right;points=[];portConstraint=eastwest;strokeColor=inherit;fontSize=13;fontColor=#330000;" parent="ZVrv0uG5uB8y7vt346ip-1" vertex="1">
          <mxGeometry y="156" width="160" height="8" as="geometry" />
        </mxCell>
        <mxCell id="ZVrv0uG5uB8y7vt346ip-3" value="+ getTitulo(): string" style="text;strokeColor=none;fillColor=none;align=left;verticalAlign=top;spacingLeft=4;spacingRight=4;overflow=hidden;rotatable=0;points=[[0,0.5],[1,0.5]];portConstraint=eastwest;fontSize=13;fontColor=#330000;" parent="ZVrv0uG5uB8y7vt346ip-1" vertex="1">
          <mxGeometry y="164" width="160" height="26" as="geometry" />
        </mxCell>
        <mxCell id="ZVrv0uG5uB8y7vt346ip-4" value="+ getAutor(): Autor" style="text;strokeColor=none;fillColor=none;align=left;verticalAlign=top;spacingLeft=4;spacingRight=4;overflow=hidden;rotatable=0;points=[[0,0.5],[1,0.5]];portConstraint=eastwest;fontSize=13;fontColor=#330000;" parent="ZVrv0uG5uB8y7vt346ip-1" vertex="1">
          <mxGeometry y="190" width="160" height="26" as="geometry" />
        </mxCell>
        <mxCell id="ZVrv0uG5uB8y7vt346ip-8" value="Dado cualquier documento el cual puede tener un nombre, título, texto, autor y fecha de creación, diseñar y desarrollar la funcionalidad para poder exportar en cualquier momento el texto del mismo en PDF, Word o Txt." style="text;html=1;strokeColor=#6c8ebf;fillColor=#dae8fc;align=center;verticalAlign=middle;whiteSpace=wrap;rounded=0;fontStyle=1;fontSize=19;" parent="1" vertex="1">
          <mxGeometry x="160" y="390" width="450" height="240" as="geometry" />
        </mxCell>
        <mxCell id="ZVrv0uG5uB8y7vt346ip-11" value="Autor" style="swimlane;fontStyle=1;align=center;verticalAlign=top;childLayout=stackLayout;horizontal=1;startSize=26;horizontalStack=0;resizeParent=1;resizeParentMax=0;resizeLast=0;collapsible=1;marginBottom=0;fontSize=13;fontColor=#330000;" parent="1" vertex="1">
          <mxGeometry x="660" y="690" width="160" height="86" as="geometry" />
        </mxCell>
        <mxCell id="ZVrv0uG5uB8y7vt346ip-12" value="- nombre: string" style="text;strokeColor=none;fillColor=none;align=left;verticalAlign=top;spacingLeft=4;spacingRight=4;overflow=hidden;rotatable=0;points=[[0,0.5],[1,0.5]];portConstraint=eastwest;fontSize=13;fontColor=#330000;" parent="ZVrv0uG5uB8y7vt346ip-11" vertex="1">
          <mxGeometry y="26" width="160" height="26" as="geometry" />
        </mxCell>
        <mxCell id="ZVrv0uG5uB8y7vt346ip-16" value="" style="line;strokeWidth=1;fillColor=none;align=left;verticalAlign=middle;spacingTop=-1;spacingLeft=3;spacingRight=3;rotatable=0;labelPosition=right;points=[];portConstraint=eastwest;strokeColor=inherit;fontSize=13;fontColor=#330000;" parent="ZVrv0uG5uB8y7vt346ip-11" vertex="1">
          <mxGeometry y="52" width="160" height="8" as="geometry" />
        </mxCell>
        <mxCell id="ZVrv0uG5uB8y7vt346ip-17" value="+ getNombre(): string" style="text;strokeColor=none;fillColor=none;align=left;verticalAlign=top;spacingLeft=4;spacingRight=4;overflow=hidden;rotatable=0;points=[[0,0.5],[1,0.5]];portConstraint=eastwest;fontSize=13;fontColor=#330000;" parent="ZVrv0uG5uB8y7vt346ip-11" vertex="1">
          <mxGeometry y="60" width="160" height="26" as="geometry" />
        </mxCell>
        <mxCell id="ZVrv0uG5uB8y7vt346ip-23" value="" style="edgeStyle=entityRelationEdgeStyle;fontSize=12;html=1;endArrow=ERone;startArrow=ERmany;rounded=0;entryX=0;entryY=0.5;entryDx=0;entryDy=0;exitX=1;exitY=0.5;exitDx=0;exitDy=0;endFill=0;" parent="1" source="ZVrv0uG5uB8y7vt346ip-10" target="ZVrv0uG5uB8y7vt346ip-12" edge="1">
          <mxGeometry width="100" height="100" relative="1" as="geometry">
            <mxPoint x="310" y="860" as="sourcePoint" />
            <mxPoint x="410" y="760" as="targetPoint" />
          </mxGeometry>
        </mxCell>
        <mxCell id="ZVrv0uG5uB8y7vt346ip-33" value="Impresor" style="swimlane;fontStyle=1;align=center;verticalAlign=top;childLayout=stackLayout;horizontal=1;startSize=26;horizontalStack=0;resizeParent=1;resizeParentMax=0;resizeLast=0;collapsible=1;marginBottom=0;fontSize=13;fontColor=#330000;" parent="1" vertex="1">
          <mxGeometry x="160" y="1390" width="210" height="60" as="geometry" />
        </mxCell>
        <mxCell id="ZVrv0uG5uB8y7vt346ip-34" value="" style="line;strokeWidth=1;fillColor=none;align=left;verticalAlign=middle;spacingTop=-1;spacingLeft=3;spacingRight=3;rotatable=0;labelPosition=right;points=[];portConstraint=eastwest;strokeColor=inherit;fontSize=13;fontColor=#330000;" parent="ZVrv0uG5uB8y7vt346ip-33" vertex="1">
          <mxGeometry y="26" width="210" height="8" as="geometry" />
        </mxCell>
        <mxCell id="ZVrv0uG5uB8y7vt346ip-35" value="+ imprimir(Imprimible): void" style="text;strokeColor=none;fillColor=none;align=left;verticalAlign=top;spacingLeft=4;spacingRight=4;overflow=hidden;rotatable=0;points=[[0,0.5],[1,0.5]];portConstraint=eastwest;fontSize=13;fontColor=#330000;" parent="ZVrv0uG5uB8y7vt346ip-33" vertex="1">
          <mxGeometry y="34" width="210" height="26" as="geometry" />
        </mxCell>
        <mxCell id="ZVrv0uG5uB8y7vt346ip-36" value="PDF" style="swimlane;fontStyle=1;align=center;verticalAlign=top;childLayout=stackLayout;horizontal=1;startSize=26;horizontalStack=0;resizeParent=1;resizeParentMax=0;resizeLast=0;collapsible=1;marginBottom=0;fontSize=13;fontColor=#330000;" parent="1" vertex="1">
          <mxGeometry x="-70" y="1100" width="160" height="112" as="geometry" />
        </mxCell>
        <mxCell id="ZVrv0uG5uB8y7vt346ip-37" value="- documento: Documento" style="text;strokeColor=none;fillColor=none;align=left;verticalAlign=top;spacingLeft=4;spacingRight=4;overflow=hidden;rotatable=0;points=[[0,0.5],[1,0.5]];portConstraint=eastwest;fontSize=13;fontColor=#330000;" parent="ZVrv0uG5uB8y7vt346ip-36" vertex="1">
          <mxGeometry y="26" width="160" height="26" as="geometry" />
        </mxCell>
        <mxCell id="ZVrv0uG5uB8y7vt346ip-70" value="- impresor: Impresor" style="text;strokeColor=none;fillColor=none;align=left;verticalAlign=top;spacingLeft=4;spacingRight=4;overflow=hidden;rotatable=0;points=[[0,0.5],[1,0.5]];portConstraint=eastwest;fontSize=13;fontColor=#330000;" parent="ZVrv0uG5uB8y7vt346ip-36" vertex="1">
          <mxGeometry y="52" width="160" height="26" as="geometry" />
        </mxCell>
        <mxCell id="ZVrv0uG5uB8y7vt346ip-42" value="" style="line;strokeWidth=1;fillColor=none;align=left;verticalAlign=middle;spacingTop=-1;spacingLeft=3;spacingRight=3;rotatable=0;labelPosition=right;points=[];portConstraint=eastwest;strokeColor=inherit;fontSize=13;fontColor=#330000;" parent="ZVrv0uG5uB8y7vt346ip-36" vertex="1">
          <mxGeometry y="78" width="160" height="8" as="geometry" />
        </mxCell>
        <mxCell id="ZVrv0uG5uB8y7vt346ip-43" value="+ imprimir(): void" style="text;strokeColor=none;fillColor=none;align=left;verticalAlign=top;spacingLeft=4;spacingRight=4;overflow=hidden;rotatable=0;points=[[0,0.5],[1,0.5]];portConstraint=eastwest;fontSize=13;fontColor=#330000;" parent="ZVrv0uG5uB8y7vt346ip-36" vertex="1">
          <mxGeometry y="86" width="160" height="26" as="geometry" />
        </mxCell>
        <mxCell id="ZVrv0uG5uB8y7vt346ip-45" value="Txt" style="swimlane;fontStyle=1;align=center;verticalAlign=top;childLayout=stackLayout;horizontal=1;startSize=26;horizontalStack=0;resizeParent=1;resizeParentMax=0;resizeLast=0;collapsible=1;marginBottom=0;fontSize=13;fontColor=#330000;" parent="1" vertex="1">
          <mxGeometry x="170" y="1100" width="160" height="112" as="geometry" />
        </mxCell>
        <mxCell id="ZVrv0uG5uB8y7vt346ip-46" value="- documento: Documento" style="text;strokeColor=none;fillColor=none;align=left;verticalAlign=top;spacingLeft=4;spacingRight=4;overflow=hidden;rotatable=0;points=[[0,0.5],[1,0.5]];portConstraint=eastwest;fontSize=13;fontColor=#330000;" parent="ZVrv0uG5uB8y7vt346ip-45" vertex="1">
          <mxGeometry y="26" width="160" height="26" as="geometry" />
        </mxCell>
        <mxCell id="ZVrv0uG5uB8y7vt346ip-71" value="- impresor: Impresor" style="text;strokeColor=none;fillColor=none;align=left;verticalAlign=top;spacingLeft=4;spacingRight=4;overflow=hidden;rotatable=0;points=[[0,0.5],[1,0.5]];portConstraint=eastwest;fontSize=13;fontColor=#330000;" parent="ZVrv0uG5uB8y7vt346ip-45" vertex="1">
          <mxGeometry y="52" width="160" height="26" as="geometry" />
        </mxCell>
        <mxCell id="ZVrv0uG5uB8y7vt346ip-51" value="" style="line;strokeWidth=1;fillColor=none;align=left;verticalAlign=middle;spacingTop=-1;spacingLeft=3;spacingRight=3;rotatable=0;labelPosition=right;points=[];portConstraint=eastwest;strokeColor=inherit;fontSize=13;fontColor=#330000;" parent="ZVrv0uG5uB8y7vt346ip-45" vertex="1">
          <mxGeometry y="78" width="160" height="8" as="geometry" />
        </mxCell>
        <mxCell id="ZVrv0uG5uB8y7vt346ip-52" value="+ imprimir(): void" style="text;strokeColor=none;fillColor=none;align=left;verticalAlign=top;spacingLeft=4;spacingRight=4;overflow=hidden;rotatable=0;points=[[0,0.5],[1,0.5]];portConstraint=eastwest;fontSize=13;fontColor=#330000;" parent="ZVrv0uG5uB8y7vt346ip-45" vertex="1">
          <mxGeometry y="86" width="160" height="26" as="geometry" />
        </mxCell>
        <mxCell id="ZVrv0uG5uB8y7vt346ip-54" value="Word" style="swimlane;fontStyle=1;align=center;verticalAlign=top;childLayout=stackLayout;horizontal=1;startSize=26;horizontalStack=0;resizeParent=1;resizeParentMax=0;resizeLast=0;collapsible=1;marginBottom=0;fontSize=13;fontColor=#330000;" parent="1" vertex="1">
          <mxGeometry x="420" y="1090" width="160" height="112" as="geometry" />
        </mxCell>
        <mxCell id="ZVrv0uG5uB8y7vt346ip-55" value="- documento: Documento" style="text;strokeColor=none;fillColor=none;align=left;verticalAlign=top;spacingLeft=4;spacingRight=4;overflow=hidden;rotatable=0;points=[[0,0.5],[1,0.5]];portConstraint=eastwest;fontSize=13;fontColor=#330000;" parent="ZVrv0uG5uB8y7vt346ip-54" vertex="1">
          <mxGeometry y="26" width="160" height="26" as="geometry" />
        </mxCell>
        <mxCell id="ZVrv0uG5uB8y7vt346ip-72" value="- impresor: Impresor" style="text;strokeColor=none;fillColor=none;align=left;verticalAlign=top;spacingLeft=4;spacingRight=4;overflow=hidden;rotatable=0;points=[[0,0.5],[1,0.5]];portConstraint=eastwest;fontSize=13;fontColor=#330000;" parent="ZVrv0uG5uB8y7vt346ip-54" vertex="1">
          <mxGeometry y="52" width="160" height="26" as="geometry" />
        </mxCell>
        <mxCell id="ZVrv0uG5uB8y7vt346ip-60" value="" style="line;strokeWidth=1;fillColor=none;align=left;verticalAlign=middle;spacingTop=-1;spacingLeft=3;spacingRight=3;rotatable=0;labelPosition=right;points=[];portConstraint=eastwest;strokeColor=inherit;fontSize=13;fontColor=#330000;" parent="ZVrv0uG5uB8y7vt346ip-54" vertex="1">
          <mxGeometry y="78" width="160" height="8" as="geometry" />
        </mxCell>
        <mxCell id="ZVrv0uG5uB8y7vt346ip-61" value="+ imprimir(): void" style="text;strokeColor=none;fillColor=none;align=left;verticalAlign=top;spacingLeft=4;spacingRight=4;overflow=hidden;rotatable=0;points=[[0,0.5],[1,0.5]];portConstraint=eastwest;fontSize=13;fontColor=#330000;" parent="ZVrv0uG5uB8y7vt346ip-54" vertex="1">
          <mxGeometry y="86" width="160" height="26" as="geometry" />
        </mxCell>
        <mxCell id="ZVrv0uG5uB8y7vt346ip-63" value="&lt;p style=&quot;margin:0px;margin-top:4px;text-align:center;&quot;&gt;&lt;i&gt;&amp;lt;&amp;lt;Interface&amp;gt;&amp;gt;&lt;/i&gt;&lt;br&gt;&lt;b&gt;Imprimible&lt;/b&gt;&lt;/p&gt;&lt;br&gt;&lt;hr size=&quot;1&quot;&gt;+ imprimir(): void" style="verticalAlign=top;align=left;overflow=fill;fontSize=12;fontFamily=Helvetica;html=1;whiteSpace=wrap;" parent="1" vertex="1">
          <mxGeometry x="-70" y="746" width="190" height="140" as="geometry" />
        </mxCell>
        <mxCell id="ZVrv0uG5uB8y7vt346ip-64" value="" style="endArrow=block;dashed=1;endFill=0;endSize=12;html=1;rounded=0;entryX=0;entryY=0.75;entryDx=0;entryDy=0;exitX=0.444;exitY=0;exitDx=0;exitDy=0;exitPerimeter=0;" parent="1" source="ZVrv0uG5uB8y7vt346ip-36" target="ZVrv0uG5uB8y7vt346ip-63" edge="1">
          <mxGeometry width="160" relative="1" as="geometry">
            <mxPoint x="-70" y="990" as="sourcePoint" />
            <mxPoint x="90" y="990" as="targetPoint" />
          </mxGeometry>
        </mxCell>
        <mxCell id="ZVrv0uG5uB8y7vt346ip-65" value="" style="endArrow=block;dashed=1;endFill=0;endSize=12;html=1;rounded=0;entryX=0.5;entryY=1;entryDx=0;entryDy=0;exitX=0.456;exitY=-0.011;exitDx=0;exitDy=0;exitPerimeter=0;" parent="1" source="ZVrv0uG5uB8y7vt346ip-45" target="ZVrv0uG5uB8y7vt346ip-63" edge="1">
          <mxGeometry width="160" relative="1" as="geometry">
            <mxPoint x="110" y="1165" as="sourcePoint" />
            <mxPoint x="254" y="1000" as="targetPoint" />
          </mxGeometry>
        </mxCell>
        <mxCell id="ZVrv0uG5uB8y7vt346ip-66" value="" style="endArrow=block;dashed=1;endFill=0;endSize=12;html=1;rounded=0;entryX=1;entryY=0.629;entryDx=0;entryDy=0;exitX=0.5;exitY=0;exitDx=0;exitDy=0;entryPerimeter=0;" parent="1" source="ZVrv0uG5uB8y7vt346ip-54" target="ZVrv0uG5uB8y7vt346ip-63" edge="1">
          <mxGeometry width="160" relative="1" as="geometry">
            <mxPoint x="481.5" y="1049" as="sourcePoint" />
            <mxPoint x="478.5" y="920" as="targetPoint" />
          </mxGeometry>
        </mxCell>
        <mxCell id="ZVrv0uG5uB8y7vt346ip-67" value="Use" style="endArrow=open;endSize=12;dashed=1;html=1;rounded=0;exitX=1;exitY=0.5;exitDx=0;exitDy=0;entryX=0.356;entryY=0.962;entryDx=0;entryDy=0;entryPerimeter=0;" parent="1" source="ZVrv0uG5uB8y7vt346ip-46" target="ZVrv0uG5uB8y7vt346ip-4" edge="1">
          <mxGeometry width="160" relative="1" as="geometry">
            <mxPoint x="280" y="980" as="sourcePoint" />
            <mxPoint x="440" y="980" as="targetPoint" />
          </mxGeometry>
        </mxCell>
        <mxCell id="ZVrv0uG5uB8y7vt346ip-68" value="Use" style="endArrow=open;endSize=12;dashed=1;html=1;rounded=0;exitX=0.75;exitY=0;exitDx=0;exitDy=0;entryX=0.438;entryY=1.154;entryDx=0;entryDy=0;entryPerimeter=0;" parent="1" source="ZVrv0uG5uB8y7vt346ip-54" target="ZVrv0uG5uB8y7vt346ip-4" edge="1">
          <mxGeometry width="160" relative="1" as="geometry">
            <mxPoint x="340" y="1149" as="sourcePoint" />
            <mxPoint x="477" y="895" as="targetPoint" />
          </mxGeometry>
        </mxCell>
        <mxCell id="ZVrv0uG5uB8y7vt346ip-69" value="Use" style="endArrow=open;endSize=12;dashed=1;html=1;rounded=0;exitX=0.919;exitY=-0.035;exitDx=0;exitDy=0;entryX=0.231;entryY=1.116;entryDx=0;entryDy=0;entryPerimeter=0;exitPerimeter=0;" parent="1" source="ZVrv0uG5uB8y7vt346ip-36" target="ZVrv0uG5uB8y7vt346ip-4" edge="1">
          <mxGeometry width="160" relative="1" as="geometry">
            <mxPoint x="130" y="1130" as="sourcePoint" />
            <mxPoint x="70" y="930" as="targetPoint" />
          </mxGeometry>
        </mxCell>
        <mxCell id="ZVrv0uG5uB8y7vt346ip-73" value="Use" style="endArrow=open;endSize=12;dashed=1;html=1;rounded=0;entryX=0.5;entryY=0;entryDx=0;entryDy=0;" parent="1" source="ZVrv0uG5uB8y7vt346ip-61" target="ZVrv0uG5uB8y7vt346ip-33" edge="1">
          <mxGeometry width="160" relative="1" as="geometry">
            <mxPoint x="550" y="1100" as="sourcePoint" />
            <mxPoint x="490" y="900" as="targetPoint" />
          </mxGeometry>
        </mxCell>
        <mxCell id="ZVrv0uG5uB8y7vt346ip-74" value="Use" style="endArrow=open;endSize=12;dashed=1;html=1;rounded=0;entryX=0.5;entryY=0;entryDx=0;entryDy=0;exitX=0.506;exitY=1.142;exitDx=0;exitDy=0;exitPerimeter=0;" parent="1" source="ZVrv0uG5uB8y7vt346ip-52" target="ZVrv0uG5uB8y7vt346ip-33" edge="1">
          <mxGeometry width="160" relative="1" as="geometry">
            <mxPoint x="495" y="1212" as="sourcePoint" />
            <mxPoint x="275" y="1400" as="targetPoint" />
          </mxGeometry>
        </mxCell>
        <mxCell id="ZVrv0uG5uB8y7vt346ip-75" value="Use" style="endArrow=open;endSize=12;dashed=1;html=1;rounded=0;entryX=0.319;entryY=0.022;entryDx=0;entryDy=0;exitX=0.444;exitY=1.103;exitDx=0;exitDy=0;exitPerimeter=0;entryPerimeter=0;" parent="1" source="ZVrv0uG5uB8y7vt346ip-43" target="ZVrv0uG5uB8y7vt346ip-33" edge="1">
          <mxGeometry width="160" relative="1" as="geometry">
            <mxPoint x="261" y="1226" as="sourcePoint" />
            <mxPoint x="275" y="1400" as="targetPoint" />
          </mxGeometry>
        </mxCell>
      </root>
    </mxGraphModel>
  </diagram>
  <diagram id="s1QMmddUKzPAXgTeXxOY" name="disenio-sistemas -clase 2">
    <mxGraphModel dx="931" dy="673" grid="1" gridSize="10" guides="1" tooltips="1" connect="1" arrows="1" fold="1" page="1" pageScale="1" pageWidth="850" pageHeight="1100" math="0" shadow="0">
      <root>
        <mxCell id="0" />
        <mxCell id="1" parent="0" />
        <mxCell id="pBGuv0j49dd8rYtpd4Hc-3" value="&lt;h1 style=&quot;font-size: 20px;&quot;&gt;&lt;span style=&quot;background-color: initial; font-size: 20px; font-weight: normal;&quot;&gt;Diseñar mediante un diagrama de clase y luego construir en Java o cualquier otro lenguaje orientado a objetos, una solución de software para semáforos, teniendo en cuenta para la búsqueda de la solución tratar de evitar estructuras condicionales para evitar complejizar la lógica.&lt;/span&gt;&lt;br style=&quot;font-size: 20px;&quot;&gt;&lt;/h1&gt;" style="text;html=1;strokeColor=#6c8ebf;fillColor=#dae8fc;spacing=5;spacingTop=-20;whiteSpace=wrap;overflow=hidden;rounded=0;fontSize=20;" vertex="1" parent="1">
          <mxGeometry x="100" y="180" width="420" height="230" as="geometry" />
        </mxCell>
      </root>
    </mxGraphModel>
  </diagram>
</mxfile>
